<svg xmlns="http://www.w3.org/2000/svg" width="197.875" height="52.560" viewBox="0 0 197.875 52.560" fill="none">
  <path d="M 17.64 16.488 C 11.52 16.488 6.624 19.512 4.464 24.624 L 4.464 0 L 0 0 L 0 51.84 L 4.464 51.84 L 4.464 33.192 C 4.464 25.416 8.856 20.448 16.272 20.448 C 22.032 20.448 26.208 24.336 26.208 31.608 L 26.208 51.84 L 30.672 51.84 L 30.672 30.168 C 30.672 21.528 25.56 16.488 17.64 16.488 Z" fill="currentColor" fill-rule="nonzero"/>
  <path d="M 56.648 16.488 C 46.784 16.488 39.944 23.904 39.944 34.632 C 39.944 45.144 47.576 52.56 58.088 52.56 C 63.344 52.56 67.88 50.904 71.336 47.376 L 71.336 43.488 C 67.88 47.16 63.56 48.744 58.52 48.744 C 50.744 48.744 45.2 44.064 44.408 36.072 L 72.128 36.072 C 73.64 22.968 66.44 16.488 56.648 16.488 Z M 56.792 20.232 C 64.064 20.232 68.384 25.128 68.024 32.688 L 44.336 32.688 C 44.768 24.912 49.88 20.232 56.792 20.232 Z" fill="currentColor" fill-rule="nonzero"/>
  <path d="M 94.579 16.488 C 89.683 16.488 84.283 18.36 81.475 20.664 L 81.475 24.912 C 84.283 22.176 89.323 20.376 93.787 20.376 C 100.123 20.376 104.299 23.4 104.299 29.52 L 104.299 35.928 C 101.995 32.904 97.747 31.032 92.779 31.032 C 85.147 31.032 79.459 35.28 79.459 41.832 C 79.459 48.384 85.291 52.56 92.851 52.56 C 98.467 52.56 102.643 50.328 104.659 46.872 L 104.659 51.84 L 108.835 51.84 L 108.835 29.952 C 108.835 20.808 102.571 16.488 94.579 16.488 Z M 93.787 48.888 C 88.027 48.888 83.923 46.224 83.923 41.688 C 83.923 37.224 87.955 34.344 93.931 34.344 C 100.339 34.344 104.515 37.728 104.515 41.688 C 104.515 45.792 99.979 48.888 93.787 48.888 Z" fill="currentColor" fill-rule="nonzero"/>
  <path d="M 125.261 51.84 L 125.261 0 L 120.797 0 L 120.797 51.84 L 125.261 51.84 Z" fill="currentColor" fill-rule="nonzero"/>
  <path d="M 152.428 48.456 C 148.396 48.456 144.725 46.728 144.725 41.256 L 144.725 21.168 L 158.549 21.168 L 158.549 17.208 L 144.725 17.208 L 144.725 7.488 L 140.261 7.488 L 140.261 17.208 L 132.988 17.208 L 132.988 21.168 L 140.261 21.168 L 140.261 42.12 C 140.261 49.104 145.372 52.56 151.492 52.56 C 154.012 52.56 156.965 51.696 159.053 49.896 L 159.053 45.936 C 157.253 47.448 154.732 48.456 152.428 48.456 Z" fill="currentColor" fill-rule="nonzero"/>
  <path d="M 184.843 16.488 C 178.723 16.488 173.827 19.512 171.667 24.624 L 171.667 0 L 167.203 0 L 167.203 51.84 L 171.667 51.84 L 171.667 33.192 C 171.667 25.416 176.059 20.448 183.475 20.448 C 189.235 20.448 193.411 24.336 193.411 31.608 L 193.411 51.84 L 197.875 51.84 L 197.875 30.168 C 197.875 21.528 192.763 16.488 184.843 16.488 Z" fill="currentColor" fill-rule="nonzero"/>
</svg>
